<svg width="24" height="24" viewBox="0 0 24 24" fill="none" xmlns="http://www.w3.org/2000/svg">
<path d="M5.16567 9.90005C4.95239 9.90005 4.80005 10.0829 4.80005 10.2657V18.1875C4.80005 19.0102 5.43989 19.65 6.26255 19.65H16.9876C17.7797 19.65 18.4501 19.0102 18.4501 18.1875V10.2657C18.4501 10.0829 18.2672 9.90005 18.0844 9.90005H5.16567ZM18.4501 8.55942V7.46255C18.4501 6.67036 17.7797 6.00005 16.9876 6.00005H15.5251V4.41567C15.5251 4.23286 15.3422 4.05005 15.1594 4.05005H13.9407C13.7274 4.05005 13.5751 4.23286 13.5751 4.41567V6.00005H9.67505V4.41567C9.67505 4.23286 9.49224 4.05005 9.30942 4.05005H8.09067C7.87739 4.05005 7.72505 4.23286 7.72505 4.41567V6.00005H6.26255C5.43989 6.00005 4.80005 6.67036 4.80005 7.46255V8.55942C4.80005 8.7727 4.95239 8.92505 5.16567 8.92505H18.0844C18.2672 8.92505 18.4501 8.7727 18.4501 8.55942Z" fill="#1ABB9A"/>
</svg>
