<svg width="28" height="28" viewBox="0 0 28 28" fill="none" xmlns="http://www.w3.org/2000/svg">
<rect width="28" height="28" rx="14" fill="white"/>
<path d="M12.1703 20.9993C12.3197 20.9998 12.4673 20.9668 12.6023 20.9028C12.7373 20.8388 12.8562 20.7453 12.9503 20.6293L17.7803 14.6293C17.9274 14.4504 18.0078 14.2259 18.0078 13.9943C18.0078 13.7627 17.9274 13.5382 17.7803 13.3593L12.7803 7.3593C12.6106 7.15508 12.3667 7.02666 12.1022 7.00228C11.8378 6.9779 11.5745 7.05956 11.3703 7.2293C11.1661 7.39904 11.0377 7.64295 11.0133 7.90738C10.9889 8.1718 11.0706 8.43508 11.2403 8.6393L15.7103 13.9993L11.3903 19.3593C11.268 19.5061 11.1904 19.6848 11.1665 19.8744C11.1426 20.0639 11.1735 20.2563 11.2556 20.4289C11.3376 20.6014 11.4674 20.7468 11.6295 20.8479C11.7916 20.949 11.9793 21.0015 12.1703 20.9993Z" fill="#1ABB9A"/>
</svg>
