<svg width="20" height="20" viewBox="0 0 20 20" fill="none" xmlns="http://www.w3.org/2000/svg">
<path d="M9.82633 7.63889C10.5446 7.63889 11.2335 7.35355 11.7414 6.84564C12.2493 6.33773 12.5347 5.64885 12.5347 4.93056C12.5347 4.21227 12.2493 3.52339 11.7414 3.01548C11.2335 2.50757 10.5446 2.22223 9.82633 2.22223C9.10804 2.22223 8.41917 2.50757 7.91126 3.01548C7.40335 3.52339 7.118 4.21227 7.118 4.93056C7.118 5.64885 7.40335 6.33773 7.91126 6.84564C8.41917 7.35355 9.10804 7.63889 9.82633 7.63889ZM4.96488 15.2475C4.78788 15.1372 4.64571 14.979 4.55481 14.7913C4.46391 14.6036 4.42799 14.394 4.4512 14.1867C4.61763 12.8787 5.25535 11.6762 6.24485 10.8046C7.23435 9.93301 8.50772 9.45217 9.82633 9.45217C11.145 9.45217 12.4183 9.93301 13.4078 10.8046C14.3973 11.6762 15.035 12.8787 15.2015 14.1867C15.2538 14.6083 15.0462 15.0173 14.6869 15.2466C13.2363 16.1761 11.5492 16.6691 9.82633 16.6667C8.1033 16.6695 6.41578 16.1769 4.96488 15.2475Z" fill="#1ABB9A"/>
</svg>
