<svg width="70" height="43" viewBox="0 0 70 43" fill="none" xmlns="http://www.w3.org/2000/svg">
<path d="M36.4118 30.3417V16.5558C41.0604 16.5558 42.6599 18.452 41.7602 30.3417C41.0404 39.8534 31.2967 42.7438 26.5149 43C14.7185 42.836 11.1029 34.4928 10.7697 30.3417V15.7359L1.3726 15.6169C1.0546 15.6169 0.113393 15.119 0.0117061 14.2264C-0.102408 13.2247 0.637486 12.6219 1.3726 12.251L8.72034 9.43232C10.6495 8.98507 10.858 5.02736 10.9623 2.88806C11.0666 1.8184 11.4838 -3.67335e-06 13.4653 0C15.4663 3.7094e-06 16.268 1.88173 16.318 2.82128V30.3417C16.7845 32.6649 19.477 37.3524 26.5149 37.5164C33.5527 37.6804 36.0453 32.8016 36.4118 30.3417Z" fill="white"/>
<path d="M17.5176 9.43232V15.7359H24.6654C25.1153 15.7359 26.115 15.4694 26.5149 14.4034C26.9148 13.3374 25.4485 12.5243 24.6654 12.251L17.5176 9.43232Z" fill="white"/>
<path d="M33.6128 12.6894V26.509C28.9437 26.509 27.3372 24.6081 28.2409 12.6894C28.9638 3.15436 38.7504 0.25687 43.5533 0C55.4015 0.164397 59.033 8.52808 59.3677 12.6894V27.3309H68.3922C69.0207 27.3309 69.754 27.7719 69.9608 28.6667C70.1883 29.6505 69.3751 30.4819 68.8061 30.8244L61.2692 33.3477C59.2108 33.796 59.3677 38.1729 59.1742 40.2772C59.1742 41.1753 58.5457 43 56.4558 43C54.446 43 53.8452 41.219 53.795 40.2772V12.6894C53.3264 10.3604 50.6221 5.66141 43.5533 5.49701C36.4845 5.33262 33.9809 10.2234 33.6128 12.6894Z" fill="#1ABB9A"/>
<path d="M52.5901 33.6499V27.3309H45.4108C44.959 27.3309 43.9549 27.5981 43.5533 28.6667C43.1516 29.7352 44.6243 30.5504 45.4108 30.8244L52.5901 33.6499Z" fill="#1ABB9A"/>
</svg>
