<svg width="20" height="20" viewBox="0 0 20 20" fill="none" xmlns="http://www.w3.org/2000/svg">
<path d="M9.56986 15.9996C9.82352 16.3942 10.4154 16.3942 10.6691 15.9996C14.784 10.0809 15.5449 9.46089 15.5449 7.26252C15.5449 4.27498 13.1211 1.85114 10.1336 1.85114C7.11783 1.85114 4.72217 4.27498 4.72217 7.26252C4.72217 9.46089 5.45496 10.0809 9.56986 15.9996ZM10.1336 9.51726C8.86526 9.51726 7.87881 8.53081 7.87881 7.26252C7.87881 6.02241 8.86526 5.00778 10.1336 5.00778C11.3737 5.00778 12.3883 6.02241 12.3883 7.26252C12.3883 8.53081 11.3737 9.51726 10.1336 9.51726Z" fill="#1ABB9A"/>
</svg>
