<svg width="18" height="19" viewBox="0 0 18 19" fill="none" xmlns="http://www.w3.org/2000/svg">
<path d="M8.96505 7.70078C9.68114 7.70078 10.3679 7.41632 10.8742 6.90997C11.3806 6.40362 11.6651 5.71687 11.6651 5.00078C11.6651 4.2847 11.3806 3.59794 10.8742 3.09159C10.3679 2.58524 9.68114 2.30078 8.96505 2.30078C8.24897 2.30078 7.56221 2.58524 7.05587 3.09159C6.54952 3.59794 6.26505 4.2847 6.26505 5.00078C6.26505 5.71687 6.54952 6.40362 7.05587 6.90997C7.56221 7.41632 8.24897 7.70078 8.96505 7.70078ZM4.11855 15.286C3.9421 15.176 3.80036 15.0183 3.70974 14.8312C3.61912 14.6441 3.58331 14.4351 3.60645 14.2285C3.77237 12.9244 4.40813 11.7256 5.39458 10.8567C6.38104 9.98784 7.65049 9.50848 8.96505 9.50848C10.2796 9.50848 11.5491 9.98784 12.5355 10.8567C13.522 11.7256 14.1577 12.9244 14.3237 14.2285C14.3759 14.6488 14.1689 15.0565 13.8107 15.2851C12.3646 16.2118 10.6826 16.7032 8.96505 16.7008C7.24732 16.7036 5.56499 16.2125 4.11855 15.286Z" fill="white"/>
</svg>
