<svg width="24" height="25" viewBox="0 0 24 25" fill="none" xmlns="http://www.w3.org/2000/svg">
<path d="M21.1197 17.78H2.87998C2.61478 17.78 2.39999 17.9948 2.39999 18.26V19.2199C2.39999 19.4851 2.61478 19.6999 2.87998 19.6999H21.1197C21.3849 19.6999 21.5997 19.4851 21.5997 19.2199V18.26C21.5997 17.9948 21.3849 17.78 21.1197 17.78ZM4.81645 14.5781C5.00485 14.7833 5.26944 14.8997 5.54634 14.8994L9.46248 14.894C9.77153 14.8936 10.0761 14.8204 10.3517 14.6804L19.0803 10.251C19.8825 9.84388 20.6016 9.26278 21.0909 8.5017C21.6402 7.64731 21.6999 7.02902 21.483 6.59222C21.2667 6.15513 20.7408 5.83414 19.7355 5.76874C18.84 5.71054 17.9494 5.94633 17.1472 6.35313L14.1919 7.8528L7.63101 5.39104C7.55212 5.3379 7.46048 5.30679 7.36554 5.30094C7.27061 5.29508 7.17583 5.3147 7.09102 5.35774L5.11855 6.35883C4.79845 6.52112 4.72105 6.94832 4.96345 7.21471L9.64998 10.1577L6.55373 11.729L4.38326 10.635C4.30848 10.5973 4.22588 10.5777 4.14214 10.5778C4.0584 10.5779 3.97585 10.5977 3.90117 10.6356L2.69728 11.2467C2.38409 11.4057 2.30159 11.8202 2.53019 12.089L4.81645 14.5781Z" fill="#1ABB9A"/>
</svg>
