<svg width="27" height="25" viewBox="0 0 27 25" fill="none" xmlns="http://www.w3.org/2000/svg">
<path d="M24.0597 17.7803H3.53999C3.24165 17.7803 3 17.9951 3 18.2603V19.2203C3 19.4854 3.24165 19.7002 3.53999 19.7002H24.0597C24.358 19.7002 24.5997 19.4854 24.5997 19.2203V18.2603C24.5997 17.9951 24.358 17.7803 24.0597 17.7803Z" fill="#1ABB9A"/>
<path d="M4.00102 7.88954C3.98766 8.16785 4.10555 8.43726 4.32606 8.63284L7.44563 11.3981C7.6918 11.6164 7.99233 11.78 8.32288 11.8759L18.7901 14.9159C19.7521 15.1953 20.7864 15.2928 21.781 15.1006C22.8976 14.8849 23.437 14.4899 23.6119 14.0277C23.7876 13.5657 23.6246 12.9668 22.8769 12.2098C22.2108 11.5354 21.3147 11.0723 20.353 10.7927L16.8091 9.76348L13.5483 3.3835C13.5278 3.29014 13.4796 3.20334 13.4088 3.13207C13.3379 3.0608 13.2469 3.00765 13.1452 2.97812L10.7797 2.29125C10.396 2.17967 9.99459 2.42701 9.9755 2.78678L11.3625 8.18164L7.64943 7.10339L6.79317 4.795C6.76368 4.71547 6.71355 4.64321 6.64685 4.58407C6.58015 4.52493 6.49874 4.48056 6.40919 4.45454L4.96539 4.03537C4.58976 3.92633 4.19433 4.16116 4.16235 4.51287L4.00102 7.88954Z" fill="#1ABB9A"/>
</svg>
