<svg width="20" height="20" viewBox="0 0 20 20" fill="none" xmlns="http://www.w3.org/2000/svg">
<path d="M15.0327 8.33301H12.0379L9.3035 3.56738C9.22537 3.43717 9.09517 3.33301 8.93892 3.33301H7.24621C6.95975 3.33301 6.75142 3.61947 6.82954 3.87988L8.10558 8.33301H5.44933L4.3035 6.84863C4.22537 6.74447 4.12121 6.66634 3.991 6.66634H2.94933C2.66287 6.66634 2.45454 6.92676 2.53267 7.18717L3.366 9.99967L2.53267 12.8382C2.45454 13.0986 2.66287 13.333 2.94933 13.333H3.991C4.12121 13.333 4.22537 13.2809 4.3035 13.1768L5.44933 11.6663H8.10558L6.82954 16.1455C6.75142 16.4059 6.95975 16.6663 7.24621 16.6663H8.93892C9.09517 16.6663 9.22537 16.5882 9.3035 16.458L12.0379 11.6663H15.0327C15.9441 11.6663 17.5327 10.9372 17.5327 9.99967C17.5327 9.08822 15.9441 8.33301 15.0327 8.33301Z" fill="#1ABB9A"/>
</svg>
