<svg width="24" height="25" viewBox="0 0 24 25" fill="none" xmlns="http://www.w3.org/2000/svg">
<path d="M6.13979 12.3603L3.35979 15.1503C3.16979 15.3503 3.16979 15.6603 3.35979 15.8603L6.13979 18.6503C6.44978 18.9703 6.98978 18.7403 6.98978 18.3003V16.5003H12.9998C13.5498 16.5003 13.9998 16.0503 13.9998 15.5003C13.9998 14.9503 13.5498 14.5003 12.9998 14.5003H6.98978V12.7103C6.98978 12.2603 6.44978 12.0403 6.13979 12.3603ZM20.6498 9.15033L17.8698 6.36033C17.5598 6.04033 17.0198 6.27033 17.0198 6.71033V8.50033H10.9998C10.4498 8.50033 9.99979 8.95033 9.99979 9.50033C9.99979 10.0503 10.4498 10.5003 10.9998 10.5003H17.0098V12.2903C17.0098 12.7403 17.5498 12.9603 17.8598 12.6403L20.6398 9.85033C20.8398 9.66033 20.8398 9.34033 20.6498 9.15033Z" fill="#A1ADB2"/>
</svg>
