<svg width="24" height="25" viewBox="0 0 24 25" fill="none" xmlns="http://www.w3.org/2000/svg">
<path d="M8.40002 10.1004C9.3548 10.1004 10.2705 9.72111 10.9456 9.04598C11.6207 8.37084 12 7.45517 12 6.50039C12 5.54561 11.6207 4.62994 10.9456 3.95481C10.2705 3.27968 9.3548 2.90039 8.40002 2.90039C7.44524 2.90039 6.52957 3.27968 5.85443 3.95481C5.1793 4.62994 4.80002 5.54561 4.80002 6.50039C4.80002 7.45517 5.1793 8.37084 5.85443 9.04598C6.52957 9.72111 7.44524 10.1004 8.40002 10.1004ZM17.4 11.3004C18.1957 11.3004 18.9587 10.9843 19.5213 10.4217C20.0839 9.8591 20.4 9.09604 20.4 8.30039C20.4 7.50474 20.0839 6.74168 19.5213 6.17907C18.9587 5.61646 18.1957 5.30039 17.4 5.30039C16.6044 5.30039 15.8413 5.61646 15.2787 6.17907C14.7161 6.74168 14.4 7.50474 14.4 8.30039C14.4 9.09604 14.7161 9.8591 15.2787 10.4217C15.8413 10.9843 16.6044 11.3004 17.4 11.3004ZM1.93802 20.214C1.70274 20.0674 1.51377 19.8571 1.39294 19.6076C1.27211 19.3581 1.22437 19.0795 1.25522 18.804C1.47645 17.0653 2.32412 15.4669 3.63939 14.3083C4.95467 13.1498 6.64727 12.5107 8.40002 12.5107C10.1528 12.5107 11.8454 13.1498 13.1606 14.3083C14.4759 15.4669 15.3236 17.0653 15.5448 18.804C15.6144 19.3644 15.3384 19.908 14.8608 20.2128C12.9327 21.4484 10.69 22.1036 8.40002 22.1004C6.1097 22.1042 3.8666 21.4494 1.93802 20.214ZM17.4 19.7004H17.2728C17.3568 19.344 17.3784 18.9672 17.3304 18.5808C17.1253 16.9312 16.4655 15.371 15.4248 14.0748C16.0946 13.8113 16.8102 13.6842 17.5298 13.7011C18.2493 13.718 18.9582 13.8785 19.6148 14.1731C20.2715 14.4678 20.8626 14.8907 21.3535 15.417C21.8445 15.9434 22.2253 16.5625 22.4736 17.238C22.5499 17.4536 22.5485 17.6892 22.4696 17.9039C22.3908 18.1186 22.2394 18.299 22.0416 18.414C20.6409 19.2585 19.0356 19.7034 17.4 19.7004Z" fill="#1ABB9A"/>
</svg>
